<?xml version="1.0" encoding="iso-8859-1"?>
<!-- Generator: Adobe Illustrator 19.0.0, SVG Export Plug-In . SVG Version: 6.00 Build 0)  -->
<svg version="1.1" id="Capa_1" xmlns="http://www.w3.org/2000/svg" xmlns:xlink="http://www.w3.org/1999/xlink" x="0px" y="0px"
	 viewBox="0 0 477.867 477.867" style="enable-background:new 0 0 477.867 477.867;" xml:space="preserve">
<g>
	<g>
		<path d="M460.8,170.667h-28.894c-2.387-6.786-5.133-13.44-8.226-19.934l20.48-20.48c6.663-6.664,6.663-17.468,0-24.132
			l-72.482-72.346c-6.665-6.663-17.468-6.663-24.132,0l-20.48,20.48c-6.473-3.108-13.104-5.877-19.866-8.294V17.067
			C307.2,7.641,299.559,0,290.133,0h-102.4c-9.426,0-17.067,7.641-17.067,17.067v28.894c-6.789,2.392-13.449,5.138-19.951,8.226
			l-20.48-20.48c-6.665-6.662-17.468-6.662-24.132,0l-72.329,72.482c-6.663,6.664-6.663,17.468,0,24.132l20.48,20.48
			c-3.115,6.47-5.883,13.102-8.294,19.866H17.067C7.641,170.667,0,178.308,0,187.733v102.4c0,9.426,7.641,17.067,17.067,17.067
			h28.894c2.387,6.786,5.132,13.44,8.226,19.934l-20.48,20.48c-6.662,6.665-6.662,17.468,0,24.132l72.414,72.414
			c6.665,6.662,17.468,6.662,24.132,0l20.48-20.48c6.497,3.087,13.151,5.833,19.934,8.226V460.8c0,9.426,7.641,17.067,17.067,17.067
			h102.4c9.426,0,17.067-7.641,17.067-17.067v-28.894c6.789-2.392,13.449-5.138,19.951-8.226l20.48,20.48
			c6.665,6.662,17.468,6.662,24.132,0l72.414-72.414c6.662-6.664,6.662-17.468,0-24.132l-20.48-20.48
			c3.088-6.494,5.828-13.148,8.209-19.934H460.8c9.426,0,17.067-7.641,17.067-17.067v-102.4
			C477.867,178.308,470.226,170.667,460.8,170.667z M238.933,358.4c-65.98,0-119.467-53.487-119.467-119.467
			s53.487-119.467,119.467-119.467S358.4,172.954,358.4,238.933C358.325,304.882,304.882,358.325,238.933,358.4z"/>
	</g>
</g>
<g>
</g>
<g>
</g>
<g>
</g>
<g>
</g>
<g>
</g>
<g>
</g>
<g>
</g>
<g>
</g>
<g>
</g>
<g>
</g>
<g>
</g>
<g>
</g>
<g>
</g>
<g>
</g>
<g>
</g>
</svg>
